<svg width="172" height="36" viewBox="0 0 172 36" fill="none" xmlns="http://www.w3.org/2000/svg">
<path d="M108.432 29.7986L107.436 30.666C107.086 30.1854 106.729 29.9458 106.367 29.9458C106.19 29.9458 106.047 29.992 105.934 30.0858C105.821 30.1796 105.766 30.2835 105.766 30.4004C105.766 30.5173 105.805 30.6284 105.886 30.7323C105.995 30.8709 106.324 31.1696 106.873 31.6286C107.386 32.0515 107.698 32.3185 107.806 32.4296C108.078 32.7009 108.272 32.9607 108.386 33.2089C108.5 33.4572 108.557 33.7285 108.557 34.0215C108.557 34.593 108.357 35.0664 107.956 35.4387C107.556 35.8111 107.034 35.9973 106.389 35.9973C105.886 35.9973 105.447 35.876 105.074 35.6321C104.701 35.3882 104.381 35.0058 104.115 34.4847L105.245 33.8122C105.584 34.4285 105.976 34.7359 106.419 34.7359C106.65 34.7359 106.844 34.6695 107.001 34.5367C107.158 34.4039 107.237 34.2509 107.237 34.0763C107.237 33.919 107.177 33.7602 107.058 33.6029C106.94 33.4456 106.678 33.2032 106.275 32.877C105.505 32.2578 105.008 31.7801 104.783 31.4439C104.558 31.1076 104.447 30.7713 104.447 30.4365C104.447 29.953 104.634 29.5388 105.007 29.1924C105.38 28.846 105.842 28.6729 106.389 28.6729C106.741 28.6729 107.078 28.7537 107.396 28.9153C107.715 29.0784 108.06 29.3728 108.432 29.7986Z" fill="#57575B"/>
<path d="M115.142 28.6758C116.143 28.6758 117.001 29.0323 117.72 29.7467C118.44 30.4611 118.8 31.3313 118.8 32.3589C118.8 33.3764 118.444 34.238 117.735 34.9423C117.026 35.6466 116.165 35.9987 115.153 35.9987C114.092 35.9987 113.211 35.6365 112.509 34.9134C111.807 34.1904 111.456 33.3302 111.456 32.3344C111.456 31.6676 111.619 31.0542 111.946 30.4957C112.272 29.9372 112.722 29.4927 113.294 29.1665C113.866 28.8389 114.481 28.6758 115.142 28.6758ZM115.128 29.9747C114.474 29.9747 113.924 30.1998 113.478 30.6472C113.032 31.0961 112.81 31.6662 112.81 32.3589C112.81 33.1296 113.091 33.7401 113.651 34.1889C114.086 34.5396 114.587 34.7157 115.151 34.7157C115.789 34.7157 116.333 34.4877 116.782 34.0331C117.231 33.5784 117.454 33.017 117.454 32.3502C117.454 31.6864 117.228 31.1249 116.776 30.6646C116.324 30.2042 115.776 29.9747 115.128 29.9747Z" fill="#57575B"/>
<path d="M122.035 28.8502H123.38V34.5568H125.34V35.8225H122.035V28.8502Z" fill="#57575B"/>
<path d="M128.282 28.8502H129.631V33.3589C129.631 33.7471 129.667 34.0228 129.735 34.183C129.804 34.3446 129.918 34.473 130.076 34.5697C130.234 34.6664 130.426 34.7141 130.651 34.7141C130.888 34.7141 131.092 34.6607 131.263 34.5524C131.435 34.4456 131.553 34.3085 131.619 34.1425C131.685 33.9766 131.717 33.6605 131.717 33.1929V28.8502H133.067V33.0067C133.067 33.7081 133.027 34.1945 132.947 34.4673C132.866 34.7386 132.714 35.0013 132.487 35.2538C132.262 35.5064 132.002 35.694 131.707 35.8153C131.411 35.9365 131.069 35.9971 130.679 35.9971C130.167 35.9971 129.721 35.8816 129.34 35.6493C128.962 35.4169 128.69 35.1268 128.526 34.7776C128.362 34.4283 128.282 33.838 128.282 33.0067V28.8502Z" fill="#57575B"/>
<path d="M135.898 28.8502H139.802V30.1578H138.515V35.8225H137.151V30.1578H135.898V28.8502Z" fill="#57575B"/>
<path d="M142.595 28.8502H143.931V35.8225H142.595V28.8502Z" fill="#57575B"/>
<path d="M150.747 28.6758C151.747 28.6758 152.605 29.0323 153.325 29.7467C154.044 30.4611 154.404 31.3313 154.404 32.3589C154.404 33.3764 154.049 34.238 153.339 34.9423C152.63 35.6466 151.769 35.9987 150.757 35.9987C149.697 35.9987 148.815 35.6365 148.113 34.9134C147.411 34.1904 147.06 33.3302 147.06 32.3344C147.06 31.6676 147.224 31.0542 147.55 30.4957C147.876 29.9372 148.326 29.4927 148.898 29.1665C149.471 28.8389 150.087 28.6758 150.747 28.6758ZM150.732 29.9747C150.078 29.9747 149.528 30.1998 149.082 30.6472C148.636 31.0961 148.414 31.6662 148.414 32.3589C148.414 33.1296 148.695 33.7401 149.255 34.1889C149.691 34.5396 150.191 34.7157 150.755 34.7157C151.393 34.7157 151.937 34.4877 152.386 34.0331C152.835 33.5784 153.059 33.017 153.059 32.3502C153.059 31.6864 152.832 31.1249 152.38 30.6646C151.93 30.2042 151.38 29.9747 150.732 29.9747Z" fill="#57575B"/>
<path d="M157.645 28.8502H158.934L161.957 33.4383V28.8502H163.302V35.8225H162.008L158.988 31.2489V35.8225H157.643V28.8502H157.645Z" fill="#57575B"/>
<path d="M170.591 29.7986L169.595 30.666C169.246 30.1854 168.889 29.9458 168.526 29.9458C168.349 29.9458 168.206 29.992 168.093 30.0858C167.981 30.1796 167.925 30.2835 167.925 30.4004C167.925 30.5173 167.965 30.6284 168.045 30.7323C168.155 30.8709 168.482 31.1696 169.031 31.6286C169.544 32.0515 169.855 32.3185 169.964 32.4296C170.236 32.7009 170.43 32.9607 170.543 33.2089C170.657 33.4572 170.714 33.7285 170.714 34.0215C170.714 34.593 170.513 35.0664 170.113 35.4387C169.712 35.8111 169.19 35.9973 168.545 35.9973C168.042 35.9973 167.603 35.876 167.23 35.6321C166.858 35.3882 166.537 35.0058 166.271 34.4847L167.402 33.8122C167.741 34.4285 168.133 34.7359 168.576 34.7359C168.807 34.7359 169.001 34.6695 169.158 34.5367C169.314 34.4039 169.393 34.2509 169.393 34.0763C169.393 33.919 169.333 33.7602 169.215 33.6029C169.096 33.4456 168.835 33.2032 168.431 32.877C167.662 32.2578 167.165 31.7801 166.939 31.4439C166.716 31.1076 166.603 30.7713 166.603 30.4365C166.603 29.953 166.79 29.5388 167.163 29.1924C167.536 28.846 167.997 28.6729 168.545 28.6729C168.898 28.6729 169.234 28.7537 169.553 28.9153C169.874 29.0784 170.22 29.3728 170.591 29.7986Z" fill="#57575B"/>
<path d="M36.8926 2.52722H40.3057V8.44736C38.4164 8.44736 36.8926 6.94351 36.8926 5.07885V2.52722ZM36.8926 25.2913V9.23247H40.3057V25.2913H36.8926Z" fill="#150089"/>
<path d="M44.2834 25.2913V11.5864H47.7302V25.2913H44.2834ZM56.2471 8.47913C57.9697 8.47913 59.3619 9.88483 59.3619 11.5864V25.2913H55.9487V11.5864H47.7302C47.7302 9.88483 49.1224 8.47913 50.8451 8.47913H56.2471Z" fill="#150089"/>
<path d="M63.3396 25.2913V11.5864H66.7864V25.2913H63.3396ZM75.3032 8.47913C77.0259 8.47913 78.4181 9.88483 78.4181 11.5864V25.2913H75.0049V11.5864H66.7864C66.7864 9.88483 68.1786 8.47913 69.9012 8.47913H75.3032Z" fill="#150089"/>
<path d="M85.8089 11.5864V22.2158H82.3958V11.5864C82.3958 9.88483 83.7879 8.47913 85.5442 8.47913H91.9406C93.6969 8.47913 95.0891 9.88483 95.0891 11.5864H85.8089ZM95.0876 11.5864H98.5008V22.2158C98.5008 23.9174 97.1086 25.2899 95.386 25.2899H88.9238C87.2011 25.2899 85.8089 23.9159 85.8089 22.2158H95.0891V11.5864H95.0876Z" fill="#150089"/>
<path d="M108.907 22.184H115.469V25.2913H108.642C106.886 25.2913 105.462 23.8841 105.462 22.184V12.2734H102.479V9.03619H113.481V12.2748H108.909V22.184H108.907ZM108.907 8.41415C107.018 8.41415 105.46 6.91031 105.46 5.04565V2.49402H108.907V8.41415Z" fill="#150089"/>
<path d="M131.808 8.47913C133.532 8.47913 134.923 9.85308 134.923 11.5864V15.74H134.889C134.756 17.3103 133.431 18.5197 131.806 18.5197H122.892V15.4124H131.508V11.5864H122.892V15.4139C121.002 15.4139 119.445 13.91 119.445 12.0454V11.5878H119.478C119.478 9.85453 120.871 8.48057 122.593 8.48057H131.808V8.47913ZM119.446 21.8896C119.446 20.025 121.004 18.5211 122.893 18.5211V22.2172H134.294V25.2913H122.893C120.506 25.2913 119.446 23.7875 119.446 21.9228V21.8896Z" fill="#150089"/>
<path d="M142.345 22.1509H152.155V25.2581H142.345C140.424 25.2581 138.899 23.786 138.899 21.9214V11.5864H142.312L142.345 22.1509ZM152.056 8.47913V11.5864H142.312C142.312 9.85308 143.704 8.47913 145.46 8.47913H152.056Z" fill="#150089"/>
<path d="M156.133 2.396H159.579V9.23114C157.69 9.23114 156.133 7.72729 156.133 5.86264V2.396ZM156.133 25.2914V12.5029H159.579V25.2914H156.133ZM167.931 9.23258C169.754 9.23258 171.245 10.7047 171.245 12.5029V25.2914H167.798V12.5029H159.579V9.23258H167.931Z" fill="#150089"/>
<path d="M4.07275 5.53791C5.13736 4.49734 6.1888 3.46831 7.27534 2.4061C9.10037 4.22457 10.9634 6.08201 12.8279 7.94089C12.8703 7.91924 12.9113 7.89759 12.9537 7.87739C12.9537 7.7576 12.9537 7.63637 12.9537 7.51658C12.9537 5.14968 12.9596 2.78134 12.9479 0.414436C12.9464 0.0969255 13.0283 -0.005544 13.3617 0.000228931C14.5842 0.0204342 15.8082 0.0189909 17.0308 0.00167216C17.3657 -0.00265753 17.4753 0.0796067 17.4739 0.424539C17.4593 2.7568 17.4666 5.08906 17.4666 7.42133C17.4666 7.56709 17.4666 7.7143 17.4666 7.92068C19.3867 6.02139 21.2512 4.17694 23.085 2.3628C24.2037 3.46398 25.2581 4.50167 26.3373 5.56244C26.2919 5.61007 26.2174 5.69666 26.1369 5.77748C24.3411 7.55122 22.5439 9.32351 20.7481 11.0987C17.6932 14.1208 12.8762 14.1756 9.78476 11.1968C7.90854 9.38556 6.06742 7.53823 4.21168 5.70677C4.15611 5.65048 4.10931 5.58265 4.07275 5.53791Z" fill="#150089"/>
<path d="M12.2737 29.5922C10.8859 29.227 9.523 28.8662 8.15715 28.5126C7.88222 28.4419 7.96119 28.2745 8.00799 28.1042C8.49496 26.316 8.98193 24.5293 9.46743 22.7412C9.6356 22.122 9.80085 21.5029 9.96756 20.8837C9.9427 20.8621 9.9193 20.839 9.89444 20.8173C7.61315 22.1148 5.3304 23.4137 3.01254 24.7314C2.73616 24.2638 2.47878 23.8322 2.22433 23.3978C1.79001 22.6574 1.36884 21.9099 0.918436 21.1796C0.761963 20.9256 0.805834 20.8101 1.05882 20.6672C3.14123 19.4924 5.21633 18.3047 7.29289 17.1212C7.40111 17.0592 7.5064 16.9913 7.6848 16.8831C7.50055 16.8225 7.39672 16.7806 7.2885 16.7517C4.97212 16.1398 2.65719 15.5221 0.337877 14.9232C0.0278552 14.8424 -0.0569621 14.7413 0.035167 14.4224C0.381748 13.2158 0.704931 12.0035 1.02226 10.7883C1.08515 10.5473 1.1802 10.5011 1.42003 10.5646C3.95138 11.2429 6.49151 11.8953 9.01848 12.5866C13.0649 13.6935 15.4602 17.775 14.4146 21.7829C13.7609 24.2897 13.0634 26.7865 12.3849 29.2862C12.3571 29.3858 12.3147 29.481 12.2737 29.5922Z" fill="#21D866"/>
<path d="M18.1248 29.5992C17.8572 28.6149 17.5983 27.6782 17.3468 26.7401C16.8715 24.9736 16.329 23.2215 15.9415 21.4363C15.1035 17.567 17.3965 13.7568 21.2382 12.6426C23.8573 11.8821 26.5085 11.2341 29.1466 10.5355C29.1803 10.5269 29.2154 10.5283 29.3207 10.5197C29.7023 11.9282 30.0869 13.3455 30.4832 14.8075C29.1759 15.1539 27.9066 15.4901 26.6372 15.8264C25.3679 16.1627 24.0971 16.499 22.8278 16.8352C22.8175 16.867 22.8088 16.8987 22.7985 16.9305C25.0783 18.2308 27.3567 19.5326 29.6746 20.8546C29.4625 21.2212 29.268 21.5647 29.0677 21.9068C28.5807 22.7395 28.0806 23.5636 27.6112 24.405C27.4562 24.6821 27.3319 24.698 27.0642 24.5435C24.9833 23.3442 22.8921 22.1593 20.8038 20.9701C20.7146 20.9196 20.6196 20.8763 20.4266 20.7781C21.1314 23.3774 21.8129 25.8886 22.506 28.4446C21.0364 28.8328 19.6076 29.2081 18.1248 29.5992Z" fill="#349AFE"/>
</svg>
